<svg width="50" height="50" viewBox="0 0 50 50" id="courses" xmlns="http://www.w3.org/2000/svg">
<path fill-rule="evenodd" clip-rule="evenodd" d="M0 0H39.1317V8.55258C41.553 8.9479 43.8094 9.99358 45.6414 11.5694C47.4734 13.1452 48.8066 15.1872 49.4879 17.4605C50.1691 19.7339 50.1707 22.1463 49.4925 24.4205C48.8142 26.6947 47.4836 28.7383 45.6537 30.3163V49.9979L42.2731 47.8257L36.9577 44.4114L31.6423 47.8257L28.2618 50V41.8936H0V0ZM28.2618 37.7042V30.3142C26.4319 28.7362 25.1013 26.6926 24.423 24.4184C23.7447 22.1442 23.7463 19.7318 24.4276 17.4584C25.1088 15.1851 26.4421 13.1431 28.2741 11.5673C30.1061 9.99148 32.3625 8.9458 34.7837 8.55048V4.19145H4.34797V37.7063H28.2618V37.7042ZM32.6098 32.8006V42.168L35.7512 40.1508L36.9577 39.3758L38.1643 40.1508L41.3057 42.1659V32.8027C39.9089 33.2765 38.4385 33.5174 36.9577 33.5149C35.4768 33.5167 34.0064 33.2752 32.6098 32.8006ZM36.9577 12.5681C34.6514 12.5681 32.4396 13.4508 30.8088 15.0221C29.178 16.5935 28.2618 18.7246 28.2618 20.9468C28.2618 23.169 29.178 25.3001 30.8088 26.8714C32.4396 28.4428 34.6514 29.3255 36.9577 29.3255C39.264 29.3255 41.4759 28.4428 43.1067 26.8714C44.7375 25.3001 45.6537 23.169 45.6537 20.9468C45.6537 18.7246 44.7375 16.5935 43.1067 15.0221C41.4759 13.4508 39.264 12.5681 36.9577 12.5681ZM21.7398 18.8521H8.69594V14.6628H21.7398V18.8521ZM8.69594 25.1362H19.5659V20.9468H8.69594V25.1362ZM13.0439 31.4202H8.69594V27.2308H13.0439V31.4202ZM8.69594 12.5681H13.0439V8.37872H8.69594V12.5681Z" />
</svg>
