<svg width="50" height="50" viewBox="0 0 50 50" id="dashboard" xmlns="http://www.w3.org/2000/svg">
<path d="M45.4545 30V5H4.54545V30H45.4545ZM45.4545 0C46.6601 0 47.8162 0.526784 48.6687 1.46447C49.5211 2.40215 50 3.67392 50 5V35C50 36.3261 49.5211 37.5979 48.6687 38.5355C47.8162 39.4732 46.6601 40 45.4545 40H29.5455L34.0909 47.5V50H15.9091V47.5L20.4545 40H4.54545C3.33992 40 2.18377 39.4732 1.33133 38.5355C0.478895 37.5979 0 36.3261 0 35V5C0 2.225 2.02273 0 4.54545 0H45.4545ZM6.81818 7.5H31.8182V20H6.81818V7.5ZM34.0909 7.5H43.1818V12.5H34.0909V7.5ZM43.1818 15V27.5H34.0909V15H43.1818ZM6.81818 22.5H18.1818V27.5H6.81818V22.5ZM20.4545 22.5H31.8182V27.5H20.4545V22.5Z"/>
</svg>
