<svg width="64" height="64" viewBox="0 0 64 64" id="fashion" xmlns="http://www.w3.org/2000/svg">
<path d="M44.887 52.955C42.988 52.955 40.351 55.514 38.444 55.514C36.134 55.514 33.984 52.955 32.001 52.955C30.018 52.955 27.866 55.514 25.559 55.514C23.653 55.514 21.016 52.955 19.116 52.955C17.275 52.955 14.031 54.462 13.001 54.965C13.003 55.382 13.039 55.816 13.063 56.242C14.584 55.484 16.858 54.488 18.314 54.488C20.331 54.488 23.131 57.262 25.157 57.262C27.611 57.262 29.896 54.488 32.002 54.488C34.108 54.488 36.393 57.262 38.847 57.262C40.873 57.262 43.675 54.488 45.691 54.488C47.151 54.488 49.438 55.492 50.959 56.251L51 54.965C49.972 54.463 46.727 52.955 44.887 52.955Z" />
<path d="M38.311 59.8691C36.048 59.8691 33.943 57.3101 32.001 57.3101C30.06 57.3101 27.954 59.8691 25.69 59.8691C23.825 59.8691 21.241 57.3101 19.381 57.3101C17.594 57.3101 14.461 58.9411 13.421 59.5101C13.555 60.2731 13.711 61.0431 13.918 61.8361C13.918 61.8361 17.88 59.4411 19.946 59.4411C21.722 59.4411 24.19 61.9991 25.972 61.9991C28.133 61.9991 30.146 59.4411 32 59.4411C33.854 59.4411 35.868 62.0001 38.029 62.0001C39.81 62.0001 42.28 59.4421 44.054 59.4421C46.118 59.4421 50.082 61.8371 50.082 61.8371C50.2804 61.0691 50.4462 60.2931 50.579 59.5111C49.541 58.9441 46.405 57.3111 44.62 57.3111C42.759 57.3111 40.176 59.8691 38.311 59.8691Z" />
<path d="M18.7709 51.783C20.7199 51.783 23.4269 54.342 25.3849 54.342C27.7559 54.342 29.9649 51.783 31.9999 51.783C34.0349 51.783 36.2449 54.342 38.6149 54.342C40.5749 54.342 43.2799 51.783 45.2319 51.783C46.8629 51.783 49.5769 52.875 50.9659 53.515C50.3509 42.073 42.1269 34.566 39.4799 29.109H40.0009V23.109H39.3919C40.6569 19.665 43.0279 15.098 41.8929 10.386C41.8929 10.386 41.6449 10.387 41.2269 10.41V2H40.0109V10.517C37.8739 10.758 34.3749 11.455 31.9999 13.481C29.6249 11.454 26.1239 10.758 23.9869 10.517V2H22.7739V10.411C22.3569 10.388 22.1079 10.387 22.1079 10.387C20.9709 15.099 23.3429 19.665 24.6089 23.11H23.9979V29.11H24.5199C21.8739 34.567 13.6559 42.075 13.0389 53.515C14.4289 52.873 17.1379 51.783 18.7709 51.783ZM39.0019 24.234V27.984H37.6499V27.986C40.2939 32.909 41.2169 41.271 41.2169 41.271L36.3209 43.029C36.3209 43.029 36.3169 36.077 34.6529 28.849C34.9809 28.521 35.1899 27.959 35.2899 27.311L37.3199 31.786C37.1459 30.086 36.0999 28.186 35.3329 26.954C35.4169 26.013 35.2939 24.969 34.9829 24.234H39.0019ZM30.2949 23.602C30.9919 22.905 33.4319 22.905 34.1299 23.602C34.8369 24.308 35.2879 27.736 34.1299 28.893C33.4359 29.586 30.9879 29.586 30.2949 28.893C29.0179 27.616 29.6459 24.251 30.2949 23.602ZM27.0249 27.984H24.9979V24.234H29.4409C29.1489 24.922 29.0199 25.884 29.0759 26.779C28.1469 28.091 27.4799 29.503 27.1979 30.083L29.1369 27.325C29.2069 27.779 29.3299 28.192 29.5119 28.511C28.5799 31.593 27.7559 36.92 27.7559 36.92L23.9679 36.045C23.9679 36.045 24.8919 31.507 27.0249 27.984Z" />
</svg>
