<svg width="50" height="41" viewBox="0 0 55 41" id="git" xmlns="http://www.w3.org/2000/svg">
<path d="M48.3396 0.00060866C46.8528 -0.0195223 43.399 0.442465 37.6325 3.97498C34.4897 3.25605 31.1457 2.90127 27.796 2.90127C24.1104 2.90127 20.3859 3.32964 16.9125 4.20175C8.63344 -0.96781 4.97914 0.0915876 4.97914 0.0915876C2.59347 5.55209 4.06771 9.59489 4.51579 10.5989C1.71178 13.3688 0 16.9058 0 21.2408C0 24.5135 0.406959 27.4489 1.40122 30.0006C1.45636 30.1975 1.43849 30.1536 1.53139 30.3222C1.75044 30.8505 1.99399 31.3632 2.26773 31.8584C2.36153 32.0366 2.4469 32.1685 2.4469 32.1685C5.24186 36.9371 10.7516 40.0174 20.5548 40.9846L35.3816 41C45.8363 40.0511 50.8531 36.9615 53.1648 32.1608L53.3118 31.8482C53.5308 31.3632 53.7218 30.8586 54.2441 29.1601C54.7664 27.4616 55 24.5201 55 21.2395C55 16.5346 53.0694 12.7699 49.9341 9.90575C50.482 8.28707 51.2139 4.69228 49.2034 0.0902756C49.2034 0.0902756 48.9215 0.00848065 48.3397 0.00056766L48.3396 0.00060866ZM36.6554 17.2664C39.0695 17.2616 41.1374 17.641 42.69 19.1319V19.1332C44.6327 21.0003 45.7696 23.2547 45.7696 25.6841C45.7696 37.027 37.7992 37.3355 27.9682 37.3355C18.1355 37.3355 10.1668 35.7638 10.1668 25.6841C10.1668 23.2708 11.2871 21.0299 13.2058 19.1703C16.4065 16.0711 21.8228 17.7123 27.9683 17.7123C31.1228 17.7118 34.0856 17.2715 36.6555 17.2664L36.6554 17.2664ZM18.3431 20.6066C16.2975 20.6066 14.6391 23.138 14.6391 26.262C14.6391 29.3864 16.2974 31.9186 18.3431 31.9186C20.3887 31.9186 22.047 29.3864 22.047 26.262C22.047 23.1384 20.3888 20.6089 18.3431 20.6066ZM38.2161 20.6066C36.1706 20.6066 34.5122 23.138 34.5122 26.262C34.5122 29.3864 36.1705 31.9186 38.2161 31.9186C40.2617 31.9186 41.9201 29.3864 41.9201 26.262C41.9201 23.1384 40.2618 20.6089 38.2161 20.6066Z" />
</svg>
