<svg width="41" height="42" viewBox="0 0 41 42" id="moon"  xmlns="http://www.w3.org/2000/svg">
<path d="M15.3764 0.710701C15.6265 1.01467 15.7798 1.38668 15.8163 1.77865C15.8529 2.17062 15.7711 2.56455 15.5814 2.90952C14.0998 5.6298 13.326 8.67898 13.3313 11.7766C13.3313 22.0813 21.732 30.4256 32.0854 30.4256C33.436 30.4256 34.7506 30.2846 36.0141 30.0155C36.4014 29.9317 36.8048 29.9637 37.174 30.1078C37.5431 30.2518 37.8617 30.5014 38.0899 30.8254C38.3307 31.1622 38.4535 31.5692 38.4392 31.9831C38.4248 32.397 38.2741 32.7945 38.0104 33.1139C36.0004 35.5829 33.4648 37.5722 30.5883 38.9369C27.7119 40.3015 24.5672 41.007 21.3834 41.002C9.56924 41.002 0 31.484 0 19.7569C0 10.9309 5.41761 3.36056 13.1314 0.152026C13.5157 -0.0103693 13.9423 -0.0437003 14.3471 0.0570402C14.7519 0.157781 15.1131 0.387153 15.3764 0.710701Z"/>
<path d="M27.6623 8.06575C27.699 7.95477 27.7698 7.85819 27.8646 7.78974C27.9594 7.72129 28.0733 7.68444 28.1902 7.68444C28.3071 7.68444 28.4211 7.72129 28.5158 7.78974C28.6106 7.85819 28.6814 7.95477 28.7181 8.06575L29.7099 11.0436C30.1533 12.3711 31.1937 13.4116 32.5212 13.855L35.4991 14.8467C35.6101 14.8835 35.7067 14.9543 35.7751 15.049C35.8436 15.1438 35.8804 15.2577 35.8804 15.3747C35.8804 15.4916 35.8436 15.6055 35.7751 15.7003C35.7067 15.795 35.6101 15.8658 35.4991 15.9026L32.5212 16.8944C31.8665 17.1125 31.2716 17.4801 30.7836 17.9681C30.2957 18.456 29.928 19.051 29.7099 19.7057L28.7181 22.6836C28.6814 22.7945 28.6106 22.8911 28.5158 22.9596C28.4211 23.028 28.3071 23.0649 28.1902 23.0649C28.0733 23.0649 27.9594 23.028 27.8646 22.9596C27.7698 22.8911 27.699 22.7945 27.6623 22.6836L26.6705 19.7057C26.4524 19.051 26.0848 18.456 25.5968 17.9681C25.1088 17.4801 24.5139 17.1125 23.8592 16.8944L20.8813 15.9026C20.7703 15.8658 20.6737 15.795 20.6053 15.7003C20.5368 15.6055 20.5 15.4916 20.5 15.3747C20.5 15.2577 20.5368 15.1438 20.6053 15.049C20.6737 14.9543 20.7703 14.8835 20.8813 14.8467L23.8592 13.855C24.5139 13.6368 25.1088 13.2692 25.5968 12.7812C26.0848 12.2933 26.4524 11.6984 26.6705 11.0436L27.6623 8.06575ZM35.5273 0.251979C35.5526 0.179008 35.6 0.115734 35.6629 0.0709515C35.7259 0.0261695 35.8012 0.00210571 35.8784 0.00210571C35.9556 0.00210571 36.0309 0.0261695 36.0939 0.0709515C36.1568 0.115734 36.2042 0.179008 36.2295 0.251979L36.8907 2.23553C37.1854 3.12224 37.8799 3.81674 38.7666 4.11145L40.7502 4.77264C40.8231 4.79794 40.8864 4.84534 40.9312 4.90826C40.976 4.97119 41 5.0465 41 5.12373C41 5.20096 40.976 5.27627 40.9312 5.3392C40.8864 5.40212 40.8231 5.44953 40.7502 5.47482L38.7666 6.13601C38.3296 6.28137 37.9326 6.52661 37.6069 6.85225C37.2813 7.17788 37.036 7.57495 36.8907 8.01193L36.2295 9.99548C36.2042 10.0685 36.1568 10.1317 36.0939 10.1765C36.0309 10.2213 35.9556 10.2454 35.8784 10.2454C35.8012 10.2454 35.7259 10.2213 35.6629 10.1765C35.6 10.1317 35.5526 10.0685 35.5273 9.99548L34.8661 8.01193C34.7208 7.57495 34.4755 7.17788 34.1499 6.85225C33.8243 6.52661 33.4272 6.28137 32.9902 6.13601L31.0067 5.47482C30.9337 5.44953 30.8704 5.40212 30.8256 5.3392C30.7808 5.27627 30.7568 5.20096 30.7568 5.12373C30.7568 5.0465 30.7808 4.97119 30.8256 4.90826C30.8704 4.84534 30.9337 4.79794 31.0067 4.77264L32.9902 4.11145C33.8769 3.81674 34.5714 3.12224 34.8661 2.23553L35.5273 0.254541V0.251979Z"/>
</svg>
