<svg width="50" height="50" viewBox="0 0 50 50" id="series" xmlns="http://www.w3.org/2000/svg">
<path d="M46.25 0.00208333H3.75C2.75544 0.00208333 1.80161 0.495944 1.09835 1.37502C0.395088 2.2541 0 3.44638 0 4.68958L0 35.9396C0 37.1828 0.395088 38.3751 1.09835 39.2541C1.80161 40.1332 2.75544 40.6271 3.75 40.6271H22.8983V43.75H10.4C9.73696 43.75 9.10107 44.0792 8.63223 44.6653C8.16339 45.2513 7.9 46.0462 7.9 46.875C7.9 47.7038 8.16339 48.4987 8.63223 49.0847C9.10107 49.6708 9.73696 50 10.4 50H40.4C41.063 50 41.6989 49.6708 42.1678 49.0847C42.6366 48.4987 42.9 47.7038 42.9 46.875C42.9 46.0462 42.6366 45.2513 42.1678 44.6653C41.6989 44.0792 41.063 43.75 40.4 43.75H27.8983V40.625H46.25C47.2446 40.625 48.1984 40.1311 48.9016 39.2521C49.6049 38.373 50 37.1807 50 35.9375V4.6875C50 3.4443 49.6049 2.25201 48.9016 1.37294C48.1984 0.49386 47.2446 0 46.25 0V0.00208333ZM45 34.3771H5V6.25208H45V34.3771Z"/>
</svg>
